<svg xmlns="http://www.w3.org/2000/svg" width="344" height="345" viewBox="0 0 344 345">
  <g fill="none" fill-rule="evenodd">
    <path fill="#03CB61" d="M73.013407,2.6866064 C106.18824,0.895535467 139.183771,-3.78753344e-15 172,0 C204.832174,0 237.664282,0.896405919 270.496323,2.68921776 L270.496323,2.68921771 C308.699378,4.77531668 339.208201,35.2833237 341.295323,73.4863222 C343.098441,106.490881 344,139.495441 344,172.5 C344,205.511425 343.098066,238.52285 341.294197,271.534276 L341.294197,271.534275 C339.20649,309.740047 308.693155,340.248892 270.487077,342.330977 C237.836179,344.110326 205.007154,345 172,345 C139.007428,345 106.01479,344.111111 73.0220864,342.333334 L73.0220864,342.333335 C34.4742283,340.256224 3.79947595,309.257162 2.12787429,270.689591 C0.709291429,237.959727 1.89395185e-15,205.229864 0,172.5 C0,139.776865 0.708999838,107.053729 2.12699951,74.3305938 L2.12699924,74.3305938 C3.79813889,35.7657548 34.4685114,4.76760084 73.013407,2.6866064 Z"/>
    <path fill="#002813" fill-rule="nonzero" d="M218.419677,88.2033203 C217.574496,84.7167643 214.436118,82.2678795 210.839916,82.2888119 L87.0887159,82.2888119 C77.5962298,82.2888119 69.9010493,89.9642194 69.9010493,99.4323144 C69.9010493,108.900409 77.5962298,116.575817 87.0887159,116.575817 L175.828639,116.575817 L150.820584,160.188887 C149.092437,162.679486 146.321977,164.250427 143.292386,164.457619 L79.1652016,164.457619 C76.1356102,164.250427 73.3651503,162.679486 71.6370037,160.188887 L39.3585658,103.735334 C38.0823552,101.019859 38.0823552,97.8790571 39.3585658,95.1635823 L71.6370037,38.6757416 C73.3651503,36.1851428 76.1356102,34.6142022 79.1652016,34.4070095 L143.292386,34.4070095 C146.321977,34.6142022 149.092437,36.1851428 150.820584,38.6757416 L165.378537,64.1338428 C167.154329,66.9960593 170.255241,68.7745022 173.628617,68.8654495 L198.65386,68.8654495 C200.671481,68.967277 202.583562,67.9610816 203.638283,66.2424936 C204.58592,64.5030539 204.506841,62.3865485 203.432031,60.7222858 L172.494231,7.73171962 C169.566818,3.10097451 164.538055,0.208206571 159.053476,0 L63.421299,0 C57.8874085,0.163386325 52.7975137,3.06167 49.8430424,7.73171962 L1.88945254,91.7348818 C-0.629817514,96.5710064 -0.629817514,102.327909 1.88945254,107.164034 L49.9289807,191.167196 C52.8745316,195.799527 57.9248033,198.680731 63.421299,198.864629 L159.053476,198.864629 C164.57795,198.67007 169.645659,195.754151 172.58017,191.081479 L218.814993,107.078317 C220.963451,103.358176 219.79469,94.7521382 218.419677,88.2033203 Z" transform="translate(62 73)"/>
  </g>
</svg>
