<svg xmlns="http://www.w3.org/2000/svg" width="220" height="199" viewBox="0 0 220 199">
  <path d="M448.419677,590.20332 C447.574496,586.716764 444.436118,584.267879 440.839916,584.288812 L317.088716,584.288812 C307.59623,584.288812 299.901049,591.964219 299.901049,601.432314 C299.901049,610.900409 307.59623,618.575817 317.088716,618.575817 L405.828639,618.575817 L380.820584,662.188887 C379.092437,664.679486 376.321977,666.250427 373.292386,666.457619 L309.165202,666.457619 C306.13561,666.250427 303.36515,664.679486 301.637004,662.188887 L269.358566,605.735334 C268.082355,603.019859 268.082355,599.879057 269.358566,597.163582 L301.637004,540.675742 C303.36515,538.185143 306.13561,536.614202 309.165202,536.407009 L373.292386,536.407009 C376.321977,536.614202 379.092437,538.185143 380.820584,540.675742 L395.378537,566.133843 C397.154329,568.996059 400.255241,570.774502 403.628617,570.865449 L428.65386,570.865449 C430.671481,570.967277 432.583562,569.961082 433.638283,568.242494 C434.58592,566.503054 434.506841,564.386548 433.432031,562.722286 L402.494231,509.73172 C399.566818,505.100975 394.538055,502.208207 389.053476,502 L293.421299,502 C287.887409,502.163386 282.797514,505.06167 279.843042,509.73172 L231.889453,593.734882 C229.370182,598.571006 229.370182,604.327909 231.889453,609.164034 L279.928981,693.167196 C282.874532,697.799527 287.924803,700.680731 293.421299,700.864629 L389.053476,700.864629 C394.57795,700.67007 399.645659,697.754151 402.58017,693.081479 L448.814993,609.078317 C450.963451,605.358176 449.79469,596.752138 448.419677,590.20332 Z" transform="translate(-230 -502)"/>
</svg>
